<?xml version="1.0" standalone="no"?><!DOCTYPE svg PUBLIC "-//W3C//DTD SVG 1.1//EN" "http://www.w3.org/Graphics/SVG/1.1/DTD/svg11.dtd"><svg t="1632105579035" class="icon" viewBox="0 0 1268 1024" version="1.1" xmlns="http://www.w3.org/2000/svg" p-id="4252" width="74.296875" height="60" xmlns:xlink="http://www.w3.org/1999/xlink"><defs><style type="text/css"></style></defs><path d="M1241.882953 971.767948h-49.381735v-77.932407a25.985387 25.985387 0 0 0-25.985387-25.985387H1062.693048a25.985387 25.985387 0 0 0-26.127902 25.985387v77.932407h-53.775974a182.11148 182.11148 0 0 0-179.973742-155.888567h-41.567118s-0.190021-172.182877-0.54631-173.869314a136.126371 136.126371 0 0 0-39.405628-107.504442l-137.337756-137.337756 162.586811-162.610563a110.164738 110.164738 0 0 0 19.643432-26.626708h161.327921A25.985387 25.985387 0 0 0 953.430911 181.945211V155.959825h60.616733v26.127902a25.985387 25.985387 0 0 0 12.992694 22.493749l90.070005 51.994525a25.961634 25.961634 0 0 0 25.985387 0l90.070005-51.994525a25.985387 25.985387 0 1 0-25.985387-44.987498l-77.077312 44.488692-64.132124-37.006611V93.062838l64.132124-37.006611 77.077312 44.488692a25.985387 25.985387 0 1 0 25.985387-44.987497L1143.09573 3.562896a25.961634 25.961634 0 0 0-25.985387 0L1027.06409 55.486164a25.985387 25.985387 0 0 0-12.992693 22.493748v26.127903H953.430911V78.122428a25.985387 25.985387 0 0 0-25.985387-25.985386h-223.274802a110.54478 110.54478 0 0 0-113.846396 26.365428l-188.999745 189.023498a149.309086 149.309086 0 0 0-62.683213 267.122173 136.482661 136.482661 0 0 0 15.819257 19.002111l142.278305 142.278305v120.045835h-31.68602a182.11148 182.11148 0 0 0-179.973742 155.888566H231.231936v-78.027417a25.985387 25.985387 0 0 0-25.985386-25.985387H101.328756a25.985387 25.985387 0 0 0-25.985387 25.985387v77.932407H25.985387a25.985387 25.985387 0 1 0 0 51.970773h1215.897566a25.985387 25.985387 0 0 0 0-51.970773zM901.531396 104.012804v51.970773h-122.706131a110.521027 110.521027 0 0 0-13.206467-51.970773zM179.261163 971.767948H127.314143v-52.042031h51.970773v51.970773zM627.140915 115.152792a58.455243 58.455243 0 0 1 82.659182 82.659182l-149.119064 149.142817a150.06917 150.06917 0 0 0-89.903737-75.43838z m-297.07425 299.283245a97.385818 97.385818 0 1 1 97.385818 97.385818 97.528334 97.528334 0 0 1-97.385818-97.385818z m107.93199 149.000302a149.641623 149.641623 0 0 0 132.658486-106.174295l114.012665 114.012665a84.44063 84.44063 0 0 1-119.404514 119.404514z m271.32639 174.55814v77.861149h-160.544084v-71.732968a136.553919 136.553919 0 0 0 160.496578-6.128181z m-371.51502 233.725964a130.140707 130.140707 0 0 1 127.29039-103.917794h337.691262a130.140707 130.140707 0 0 1 127.29039 103.917794H337.76252z m802.839183 0H1088.583424v-51.994526h51.970773z" fill="#fe7450" p-id="4253"></path><path d="M427.499988 388.498156a25.985387 25.985387 0 1 0 25.985387 25.985386 26.127902 26.127902 0 0 0-25.985387-25.985386z" fill="#fe7450" p-id="4254"></path></svg>