<?xml version="1.0" standalone="no"?><!DOCTYPE svg PUBLIC "-//W3C//DTD SVG 1.1//EN" "http://www.w3.org/Graphics/SVG/1.1/DTD/svg11.dtd"><svg t="1631953500681" class="icon" viewBox="0 0 1024 1024" version="1.1" xmlns="http://www.w3.org/2000/svg" p-id="8054" width="100" height="100" xmlns:xlink="http://www.w3.org/1999/xlink"><defs><style type="text/css"></style></defs><path d="M802.322963 948.527407H221.771852C137.102222 948.527407 68.266667 879.691852 68.266667 795.022222v-89.220741h88.746666v89.220741c0 35.65037 29.013333 64.663704 64.758519 64.663704h580.551111c35.65037 0 64.758519-29.013333 64.758518-64.663704V214.471111c0-35.745185-29.013333-64.758519-64.758518-64.758518H221.771852c-35.65037 0-64.758519 29.013333-64.758519 64.758518v89.220741H68.266667v-89.220741C68.266667 129.896296 137.102222 60.965926 221.771852 60.965926h580.551111C886.897778 60.965926 955.733333 129.896296 955.733333 214.471111v580.551111c0 84.66963-68.835556 153.505185-153.41037 153.505185z" fill="#07c160" p-id="8055"></path><path d="M112.64 460.420741h460.420741v88.746666H112.64z" fill="#07c160" p-id="8056"></path><path d="M388.314074 626.714548l184.704948-184.704948 62.753185 62.752237-184.704948 184.704948z" fill="#07c160" p-id="8057"></path><path d="M388.289422 382.814815l62.752237-62.753185L635.746607 504.76563l-62.752237 62.752237z" fill="#07c160" p-id="8058"></path></svg>