<?xml version="1.0" standalone="no"?><!DOCTYPE svg PUBLIC "-//W3C//DTD SVG 1.1//EN" "http://www.w3.org/Graphics/SVG/1.1/DTD/svg11.dtd"><svg t="1631861503391" class="icon" viewBox="0 0 1024 1024" version="1.1" xmlns="http://www.w3.org/2000/svg" p-id="14603" xmlns:xlink="http://www.w3.org/1999/xlink" width="60" height="60"><defs><style type="text/css"></style></defs><path d="M512 288.8c-61.6 0-112 49.6-112 112s50.4 112 112 112 112-49.6 112-112-50.4-112-112-112z" fill="#516df5" p-id="14604"></path><path d="M512 16C238.4 16 16 238.4 16 512s222.4 496 496 496 496-222.4 496-496S785.6 16 512 16z m260 740c-0.8 9.6-8.8 16.8-18.4 16.8-10.4 0-18.4-8.8-18.4-18.4C725.6 639.2 629.6 549.6 512 549.6S298.4 639.2 288.8 753.6c0 10.4-8 18.4-18.4 18.4-9.6 0-17.6-7.2-18.4-16.8v-5.6c8.8-105.6 80.8-193.6 179.2-224.8-40.8-26.4-68-72-68-124.8 0-82.4 66.4-148.8 149.6-148.8 82.4 0 149.6 66.4 149.6 148.8 0 52.8-27.2 98.4-68 124.8 97.6 32 170.4 119.2 179.2 224.8-1.6 2.4-0.8 4-1.6 6.4z" fill="#516df5" p-id="14605"></path></svg>