<?xml version="1.0" standalone="no"?><!DOCTYPE svg PUBLIC "-//W3C//DTD SVG 1.1//EN" "http://www.w3.org/Graphics/SVG/1.1/DTD/svg11.dtd"><svg t="1631516438679" class="icon" viewBox="0 0 1024 1024" version="1.1" xmlns="http://www.w3.org/2000/svg" p-id="2415" width="100" height="100" xmlns:xlink="http://www.w3.org/1999/xlink"><defs><style type="text/css"></style></defs><path d="M512 0C228.693333 0 0 228.693333 0 512s228.693333 512 512 512 512-228.693333 512-512S795.306667 0 512 0z m218.453333 414.72l-256 256c-13.653333 13.653333-34.133333 13.653333-47.786666 0l-134.826667-134.826667c-13.653333-13.653333-13.653333-34.133333 0-47.786666 13.653333-13.653333 34.133333-13.653333 47.786667 0l110.933333 110.933333L682.666667 366.933333c13.653333-13.653333 34.133333-13.653333 47.786666 0 13.653333 13.653333 13.653333 35.84 0 47.786667z" fill="#80C269" p-id="2416"></path></svg>