<?xml version="1.0" standalone="no"?><!DOCTYPE svg PUBLIC "-//W3C//DTD SVG 1.1//EN" "http://www.w3.org/Graphics/SVG/1.1/DTD/svg11.dtd"><svg t="1615446068476" class="icon" viewBox="0 0 1024 1024" version="1.1" xmlns="http://www.w3.org/2000/svg" p-id="1611" width="26" height="26" xmlns:xlink="http://www.w3.org/1999/xlink"><defs><style type="text/css"></style></defs><path d="M972.799962 522.11198A319.999988 319.999988 0 0 0 575.999978 1023.99996H52.287998A52.223998 52.223998 0 0 1 0 971.839962V52.159998C0 23.359999 23.039999 0 52.287998 0h868.223966C949.375963 0 972.799962 23.295999 972.799962 52.159998v469.951982zM126.911995 537.599979c0 13.695999 11.584 25.599999 25.983999 25.599999h229.631991c13.887999 0 25.983999-11.52 25.983999-25.599999 0-13.695999-11.648-25.599999-25.983999-25.599999H152.895994a26.111999 26.111999 0 0 0-25.983999 25.599999z m0 204.799992c0 13.695999 11.392 25.599999 25.535999 25.599999h179.327993c14.399999 0 25.535999-11.52 25.535999-25.599999 0-13.695999-11.456-25.599999-25.599999-25.599999h-179.199993a25.343999 25.343999 0 0 0-25.599999 25.599999z m0-435.199983c0 13.695999 11.264 25.599999 25.151999 25.599999H485.759981a25.663999 25.663999 0 0 0 0-51.199998H152.063994c-14.079999 0-25.151999 11.52-25.151999 25.599999z" p-id="1612" fill="#00925f"></path><path d="M742.399971 742.399971H636.479975a22.271999 22.271999 0 0 0-22.079999 22.015999v7.168c0 12.16 9.92 22.015999 22.079999 22.015999H742.399971v105.919996c0 11.84 9.856 22.079999 22.015999 22.079999h7.168c12.16 0 22.015999-9.92 22.015999-22.079999V793.599969h105.919996a22.271999 22.271999 0 0 0 22.079999-22.015999v-7.168a22.079999 22.079999 0 0 0-22.079999-22.015999H793.599969V636.479975a22.271999 22.271999 0 0 0-22.015999-22.079999h-7.168a22.079999 22.079999 0 0 0-22.015999 22.079999V742.399971zM767.99997 1023.99996a255.99999 255.99999 0 1 1 0-511.99998 255.99999 255.99999 0 0 1 0 511.99998z" p-id="1613" fill="#00925f"></path></svg>