<?xml version="1.0" standalone="no"?><!DOCTYPE svg PUBLIC "-//W3C//DTD SVG 1.1//EN" "http://www.w3.org/Graphics/SVG/1.1/DTD/svg11.dtd"><svg t="1617783927571" class="icon" viewBox="0 0 1024 1024" version="1.1" xmlns="http://www.w3.org/2000/svg" p-id="2402" width="44" height="44" xmlns:xlink="http://www.w3.org/1999/xlink"><defs><style type="text/css"></style></defs><path d="M512 0C230.4 0 0 230.4 0 512s230.4 512 512 512 512-230.4 512-512S793.6 0 512 0zM361.6 220.8c38.4-32 121.6 35.2 150.4 32 28.8 3.2 112-64 150.4-32 38.4 32-44.8 102.4-44.8 102.4h-208c-3.2 0-86.4-70.4-48-102.4zM624 361.6c0 9.6-9.6 19.2-19.2 19.2H416c-9.6 0-19.2-9.6-19.2-19.2s9.6-19.2 19.2-19.2h188.8c9.6 0 19.2 9.6 19.2 19.2z m-112 448c-144 0-262.4 12.8-262.4-108.8 0-89.6 64-233.6 156.8-300.8h208c92.8 67.2 156.8 211.2 156.8 300.8C774.4 822.4 656 809.6 512 809.6z m0 0" p-id="2403" fill="#f4c306"></path><path d="M614.4 483.2c6.4-6.4 6.4-12.8 0-16-3.2-3.2-12.8-3.2-16 0L512 553.6l-86.4-86.4c-6.4-6.4-12.8-6.4-16 0-3.2 3.2-3.2 12.8 0 16l92.8 92.8v6.4H416c-6.4 0-12.8 6.4-12.8 12.8S409.6 608 416 608h83.2v48H416c-6.4 0-12.8 6.4-12.8 12.8s6.4 12.8 12.8 12.8h83.2v60.8c0 6.4 6.4 12.8 12.8 12.8s12.8-6.4 12.8-12.8v-60.8H608c6.4 0 12.8-6.4 12.8-12.8S614.4 656 608 656h-83.2v-48H608c6.4 0 12.8-6.4 12.8-12.8s-6.4-12.8-12.8-12.8h-83.2V576l89.6-92.8z m0 0" p-id="2404" fill="#f4c306"></path></svg>