<?xml version="1.0" standalone="no"?><!DOCTYPE svg PUBLIC "-//W3C//DTD SVG 1.1//EN" "http://www.w3.org/Graphics/SVG/1.1/DTD/svg11.dtd"><svg t="1615706348746" class="icon" viewBox="0 0 1024 1024" version="1.1" xmlns="http://www.w3.org/2000/svg" p-id="2381" width="22" height="22" xmlns:xlink="http://www.w3.org/1999/xlink"><defs><style type="text/css"></style></defs><path d="M488.9 449.2l-30.5-131.7c-2.5-15.1-12.9-28.3-28.1-33.5-12.8-4.4-26.2-6.6-39.9-6.6-3.8 0-7.6 0.2-11.5 0.5-64 5.9-113.3 62.8-112.2 129.5 3.4 198.8 161.7 357.2 360.5 360.5h2.2c65.6 0 121.5-49.3 127.3-112.2 1.6-17.6-0.4-34.9-6.1-51.4-5.5-16.1-19.7-26.9-35.7-28.6l-129.6-30c-3.2-0.7-6.4-1.1-9.6-1.1-11.3 0-22.2 4.5-30.3 12.7-4.9 5-13.3 14.3-21.7 24.7-9.5-5.4-18.7-11.7-27.2-18.8L471.4 538c-7.1-8.5-13.4-17.7-18.8-27.2 10.4-8.3 19.7-16.7 24.7-21.7 10.5-10.4 14.9-25.5 11.6-39.9z m-21.1 145.6c11.7 9.8 24.3 18.5 37.8 25.9 6.1 3.3 12.7 5 19.2 5 11.6 0 22.9-5.1 30.6-14.8 7.7-9.8 16.1-19.2 20.5-23.6l133.9 31 0.6-0.2c3.6 10.4 5.1 21.8 4 33.7-3.9 42.5-42.2 73.4-84.8 73.4h-1.5c-174.6-3-315.6-144-318.6-318.6-0.7-43.2 30.4-82.4 73.4-86.3 2.6-0.2 5.1-0.4 7.6-0.4 9.1 0 17.9 1.5 26.1 4.3l-0.2 0.6 31 133.9c-4.4 4.3-13.8 12.7-23.6 20.5-15.1 11.9-19.1 32.9-9.8 49.8 7.4 13.5 16.1 26.1 25.9 37.8l27.9 28zM597.3 352h128c11.7 0 21.3-9.6 21.3-21.3 0-11.7-9.6-21.3-21.3-21.3h-128c-11.7 0-21.3 9.6-21.3 21.3 0 11.7 9.6 21.3 21.3 21.3z" fill="#d81e06" p-id="2382"></path><path d="M597.3 458.7h128c11.7 0 21.3-9.6 21.3-21.3 0-11.7-9.6-21.3-21.3-21.3h-128c-11.7 0-21.3 9.6-21.3 21.3 0 11.7 9.6 21.3 21.3 21.3z" fill="#d81e06" p-id="2383"></path><path d="M896 234.7c11.8 0 21.3-9.6 21.3-21.3V106.7c0-23.5-19.2-42.7-42.7-42.7H149.3c-23.5 0-42.7 19.2-42.7 42.7v810.7c0 23.5 19.2 42.7 42.7 42.7h725.3c23.5 0 42.7-19.2 42.7-42.7V384c0-11.8-9.6-21.3-21.3-21.3s-21.3 9.6-21.3 21.3v512c0 11.7-9.6 21.3-21.3 21.3H170.7c-11.7 0-21.3-9.6-21.3-21.3V128c0-11.7 9.6-21.3 21.3-21.3h682.7c11.7 0 21.3 9.6 21.3 21.3v85.3c0 11.8 9.5 21.4 21.3 21.4z" fill="#d81e06" p-id="2384"></path></svg>