<?xml version="1.0" standalone="no"?><!DOCTYPE svg PUBLIC "-//W3C//DTD SVG 1.1//EN" "http://www.w3.org/Graphics/SVG/1.1/DTD/svg11.dtd"><svg t="1627697065450" class="icon" viewBox="0 0 1024 1024" version="1.1" xmlns="http://www.w3.org/2000/svg" p-id="19223" width="25" height="25" xmlns:xlink="http://www.w3.org/1999/xlink"><defs><style type="text/css"></style></defs><path d="M512 17.10664903c-273.67602309 0-494.89335097 221.21732789-494.89335097 494.89335097s221.21732789 494.89335097 494.89335097 494.89335097 494.89335097-221.21732789 494.89335097-494.89335097-221.21732789-494.89335097-494.89335097-494.89335097z m207.85520741 702.74855838a35.56162222 35.56162222 0 0 1-49.48933509 0L512 561.48933509l-158.36587232 158.36587232a35.56162222 35.56162222 0 0 1-49.48933509 0 35.56162222 35.56162222 0 0 1 0-49.48933509L462.51066491 512 304.14479259 353.63412768a35.56162222 35.56162222 0 0 1 0-49.48933509 35.56162222 35.56162222 0 0 1 49.48933509 0L512 462.51066491l158.36587232-158.36587232a35.56162222 35.56162222 0 0 1 49.48933509 0 35.56162222 35.56162222 0 0 1 0 49.48933509L561.48933509 512l158.36587232 158.36587232a31.10758207 31.10758207 0 0 1 0 49.48933509z" p-id="19224" fill="#e6e6e6"></path></svg>