<?xml version="1.0" standalone="no"?><!DOCTYPE svg PUBLIC "-//W3C//DTD SVG 1.1//EN" "http://www.w3.org/Graphics/SVG/1.1/DTD/svg11.dtd"><svg t="1615446731352" class="icon" viewBox="0 0 1024 1024" version="1.1" xmlns="http://www.w3.org/2000/svg" p-id="3048" xmlns:xlink="http://www.w3.org/1999/xlink" width="26" height="26"><defs><style type="text/css"></style></defs><path d="M769.896 79C871.574 79 954 161.426 954 263.104v517.792C954 882.574 871.574 965 769.896 965H252.104C150.426 965 68 882.574 68 780.896V263.104C68 161.426 150.426 79 252.104 79h517.792zM512.151 385.073c-9.137 0-17.317 4.095-22.804 10.55-0.75 0.642-1.478 1.32-2.183 2.036L347.471 539.523c-13.625 13.837-13.625 36.048 0 49.886 0.125 0.126 0.25 0.252 0.376 0.376 13.565 13.357 35.39 13.189 48.747-0.376l85.639-86.971v312.978c0 16.522 13.395 29.916 29.918 29.916 16.522 0 29.917-13.394 29.917-29.916l-0.001-312.452 85.123 86.445 0.403 0.403c13.39 13.164 34.914 13.197 48.343-0.027 0.127-0.124 0.252-0.25 0.376-0.376 13.626-13.838 13.626-36.049 0-49.886L536.62 397.659l-0.288-0.288c-5.441-7.455-14.246-12.298-24.181-12.298zM751.486 256.2h-478.67c-16.523 0-29.917 13.394-29.917 29.917 0 16.523 13.394 29.917 29.917 29.917h478.67c16.522 0 29.917-13.394 29.917-29.917 0-16.523-13.395-29.917-29.917-29.917z" fill="#db430f" p-id="3049"></path></svg>