<?xml version="1.0" standalone="no"?><!DOCTYPE svg PUBLIC "-//W3C//DTD SVG 1.1//EN" "http://www.w3.org/Graphics/SVG/1.1/DTD/svg11.dtd"><svg t="1615446950529" class="icon" viewBox="0 0 1025 1024" version="1.1" xmlns="http://www.w3.org/2000/svg" p-id="6668" xmlns:xlink="http://www.w3.org/1999/xlink" width="26.025390625" height="26"><defs><style type="text/css"></style></defs><path d="M457.653631 972.513966H57.206704a57.206704 57.206704 0 0 1-57.206704-57.206703V114.413408a57.206704 57.206704 0 0 1 57.206704-57.206704h800.893855a57.206704 57.206704 0 0 1 57.206704 57.206704v400.446927h-114.413408V171.620112H114.413408v686.480447h343.240223z" fill="#1296db" p-id="6669"></path><path d="M228.826816 343.240223h457.653631v114.413408H228.826816zM228.826816 0h114.413407v228.826816H228.826816zM572.067039 0h114.413408v228.826816h-114.413408zM228.826816 572.067039h457.653631v114.413408H228.826816z" fill="#1296db" p-id="6670"></path><path d="M736.250279 1024a57.206704 57.206704 0 0 1-37.756424-14.301676l-149.309497-131.575419 75.512849-85.810056 106.404469 93.818995 208.804469-236.835755 85.810056 75.51285-246.560894 279.740782a57.206704 57.206704 0 0 1-42.905028 19.450279z" fill="#1296db" p-id="6671"></path></svg>