<?xml version="1.0" standalone="no"?><!DOCTYPE svg PUBLIC "-//W3C//DTD SVG 1.1//EN" "http://www.w3.org/Graphics/SVG/1.1/DTD/svg11.dtd"><svg t="1615446809074" class="icon" viewBox="0 0 1307 1024" version="1.1" xmlns="http://www.w3.org/2000/svg" p-id="4029" xmlns:xlink="http://www.w3.org/1999/xlink" width="33.185546875" height="26"><defs><style type="text/css"></style></defs><path d="M334.205581 181.942034l645.184518 0 0 645.184519-645.184518 0 0-645.184519Z" fill="#e48011" p-id="4030"></path><path d="M1069.162916 1024H234.847165a98.252385 98.252385 0 0 1-98.068047-98.068047V626.750675a36.867687 36.867687 0 0 1 73.735373 0v299.181278a24.332673 24.332673 0 0 0 24.332674 24.332673H1069.162916a24.332673 24.332673 0 0 0 24.332674-24.332673V636.70495a36.867687 36.867687 0 0 1 73.735373 0v289.227003A98.252385 98.252385 0 0 1 1069.162916 1024zM173.646805 422.319352a36.867687 36.867687 0 0 1-36.867687-36.867687V98.068047A98.252385 98.252385 0 0 1 234.847165 0H1069.162916a98.252385 98.252385 0 0 1 98.068047 98.068047v284.80288a36.867687 36.867687 0 0 1-73.735373 0V98.068047A24.332673 24.332673 0 0 0 1069.162916 73.735374H234.847165a24.332673 24.332673 0 0 0-24.332674 24.332673v287.383618a36.867687 36.867687 0 0 1-36.867686 36.867687zM1270.276148 553.015302H36.867687a36.867687 36.867687 0 0 1 0-73.735374h1233.408461a36.867687 36.867687 0 0 1 0 73.735374z" fill="#e48011" p-id="4031"></path></svg>