<?xml version="1.0" standalone="no"?><!DOCTYPE svg PUBLIC "-//W3C//DTD SVG 1.1//EN" "http://www.w3.org/Graphics/SVG/1.1/DTD/svg11.dtd"><svg t="1613385911087" class="icon" viewBox="0 0 1024 1024" version="1.1" xmlns="http://www.w3.org/2000/svg" p-id="1924" width="29" height="29" xmlns:xlink="http://www.w3.org/1999/xlink"><defs><style type="text/css"></style></defs><path d="M685.9263334 347.93913337c-14.78933333-12.032-36.53226667-9.79626667-48.56533333 4.99200004l-99.3408 122.10559999h-30.7008l-99.66933334-122.14613333c-12.05546668-14.77013333-33.8016-16.976-48.57173334-4.92160001-14.77226667 12.05333334-16.97493333 33.79946666-4.92266666 48.57173334l64.05120001 78.49493333H380.90446674c-19.0656 0-34.52159999 15.45600001-34.52159999 34.52053333s15.45600001 34.52159999 34.52159999 34.52160001h108.69333334v71.30666665H380.90233341c-19.0656 0-34.52159999 15.45600001-34.5216 34.52160001s15.45600001 34.52159999 34.5216 34.52160001h108.69333332v101.96373331c0 19.0656 15.45600001 34.52159999 34.52053333 34.52159999s34.52159999-15.45600001 34.52160002-34.52159999v-101.96373331h100.64853332c19.06453333 0 34.52053333-15.45600001 34.52053332-34.52160001s-15.45600001-34.52053333-34.52053332-34.52053336h-100.64853332v-71.3077333h100.64853332c19.06453333 0 34.52053333-15.45600001 34.52053332-34.52160001s-15.45600001-34.52053333-34.52053332-34.52053333h-32.26026667l63.89333334-78.5344c12.032-14.78826667 9.79626667-36.53013333-4.99306667-48.56213336z" fill="#707070" p-id="1925"></path><path d="M1005.72900006 155.80686672c0-51.09333334-41.56800001-92.66133332-92.66133332-92.66133332H867.63513339a34.88000001 34.88000001 0 0 0-3.92959999 0.22933333c-17.64266668 1.53813333-31.48693333 16.3392-31.48693334 34.3808 0 19.0976-15.53706668 34.63466667-34.63466667 34.63466667-19.0976 0-34.63573333-15.53706668-34.63573332-34.63466667a34.97600002 34.97600002 0 0 0-0.15786669-3.25973332c0.10026667-1.07306667 0.15786669-2.15893333 0.15786669-3.25866668 0-19.0656-15.45600001-34.52053333-34.52160001-34.52053334H586.31246674c-19.0656 0-34.52053333 15.45600001-34.52053335 34.52053334 0 1.10080001 0.05653333 2.18666667 0.15680001 3.25866668a34.99306667 34.99306667 0 0 0-0.15680001 3.25973332c0 19.0976-15.53813333 34.63466667-34.63466665 34.63466667-19.09866667 0-34.6368-15.53706668-34.6368-34.63466667a34.97600002 34.97600002 0 0 0-0.15680001-3.25973332c0.10026667-1.07306667 0.15679999-2.15893333 0.15680001-3.25866668 0-19.0656-15.45600001-34.52053333-34.52053334-34.52053334H318.94713339c-19.06453333 0-34.52053333 15.45600001-34.52053332 34.52053334 0 1.10080001 0.05653333 2.18666667 0.15679999 3.25866668a34.99306667 34.99306667 0 0 0-0.15679999 3.25973332c0 19.0976-15.53813333 34.63466667-34.63466669 34.63466667S215.15513338 116.85326672 215.15513338 97.75566672c0-19.0656-15.45600001-34.52159999-34.5205333-34.52159999-1.38666668 0-2.75093333 0.09066668-4.09386668 0.2496a34.7296 34.7296 0 0 0-4.78933333-0.33813333h-37.44533333c-51.09333334 0-92.66133332 41.56693333-92.66133339 92.66133332v709.69920001c0 51.09333334 41.56800001 92.66133332 92.66133339 92.66133333h778.76266667c51.09333334 0 92.66133332-41.56693333 92.66133332-92.66133333V155.80686672z m-69.04213333 709.69920001c0 13.024-10.59413332 23.6192-23.61919999 23.61919999h-778.76266669c-13.02293333 0-23.61813333-10.5952-23.61813331-23.61919999V155.80686672c0-13.024 10.59413332-23.6192 23.61813331-23.61919999h17.69386669c14.22933334 40.2944 52.68906668 69.2448 97.79199999 69.2448 47.46666668 0 87.58400001-32.0672 99.83146666-75.67466667h67.69919999c12.24746667 43.60853333 52.36373333 75.67466667 99.83253335 75.67466667s87.58506667-32.0672 99.83253335-75.67466667h80.76479997c12.2464 43.60853333 52.36266667 75.67466667 99.83253334 75.67466667 45.10186667 0 83.56266668-28.95146667 97.792-69.2448h17.69386669c13.02293333 0 23.61813333 10.5952 23.61813332 23.61919998v709.69920001z" fill="#707070" p-id="1926"></path></svg>