<?xml version="1.0" standalone="no"?><!DOCTYPE svg PUBLIC "-//W3C//DTD SVG 1.1//EN" "http://www.w3.org/Graphics/SVG/1.1/DTD/svg11.dtd"><svg t="1615449587643" class="icon" viewBox="0 0 1024 1024" version="1.1" xmlns="http://www.w3.org/2000/svg" p-id="9160" xmlns:xlink="http://www.w3.org/1999/xlink" width="26" height="26"><defs><style type="text/css"></style></defs><path d="M140.288 5.12C74.24 18.432 22.528 67.584 7.68 132.096c-10.24 42.496-10.24 717.312 0 759.808 12.8 55.296 44.032 90.624 102.912 117.76l25.6 11.776H883.712l30.72-12.288c40.448-16.384 78.848-54.784 95.232-95.232l12.288-30.72V140.8l-12.288-30.72c-16.384-40.448-54.784-78.848-95.232-95.232L883.712 2.56 522.752 1.536C324.096 1.536 152.064 3.072 140.288 5.12z m419.328 180.224c31.232 14.848 66.048 47.104 80.896 75.776 29.184 57.856 19.968 138.752-21.504 184.32-22.528 25.088-38.912 36.352-68.608 48.64l-30.208 12.8h41.472c43.008 0 84.992 10.752 112.128 28.672l13.824 9.216-25.088 10.752c-35.328 15.872-58.368 37.888-75.776 72.704-12.8 25.088-15.36 35.84-15.36 68.096 0 20.992 2.048 44.544 4.608 52.224l4.096 14.336H398.848c-218.112 0-203.776 4.608-195.584-62.976C218.112 582.656 303.104 506.88 419.84 506.88h38.912l-30.208-12.8c-35.84-14.336-73.216-49.152-90.624-83.456-10.24-20.48-12.288-31.744-12.288-72.704 0-57.856 9.728-81.92 48.64-120.32 49.664-49.152 121.856-61.952 185.344-32.256z m211.456 397.824c74.752 33.792 92.672 136.192 33.28 193.536-25.088 24.064-49.152 34.304-84.48 33.792-51.712 0-93.184-29.696-112.64-80.384-20.992-54.784 9.216-124.928 64-148.48 25.088-10.752 74.752-10.24 99.84 1.536z" p-id="9161" fill="#d81e06"></path><path d="M494.08 546.816c-2.56 2.048-10.24 35.84-15.872 75.264l-11.264 71.68 12.8 16.384c16.384 21.504 27.136 21.504 41.984-0.512l11.776-16.896-10.752-68.608C509.44 537.6 508.928 536.576 494.08 546.816zM656.896 623.616c-4.608 3.072-6.144 19.456-5.12 62.976l1.536 58.368h133.12l1.536-59.904c1.536-59.904 1.536-59.904-11.264-63.488-6.656-1.536-16.896-0.512-23.04 2.56-7.68 4.608-13.312 4.096-20.992-0.512-7.68-4.608-13.824-5.12-25.088-1.024-8.704 3.584-17.92 4.096-21.504 1.536-9.216-5.632-20.48-5.632-29.184-0.512z m24.576 36.864c0 14.848-2.048 20.48-7.68 20.48-5.632 0-7.68-5.632-7.68-20.48 0-14.848 2.048-20.48 7.68-20.48 5.632 0 7.68 5.632 7.68 20.48z m46.08 0c0 14.848-2.048 20.48-7.68 20.48-5.632 0-7.68-5.632-7.68-20.48 0-14.848 2.048-20.48 7.68-20.48 5.632 0 7.68 5.632 7.68 20.48z m46.08 0c0 14.848-2.048 20.48-7.68 20.48-5.632 0-7.68-5.632-7.68-20.48 0-14.848 2.048-20.48 7.68-20.48 5.632 0 7.68 5.632 7.68 20.48z" p-id="9162" fill="#d81e06"></path></svg>