<?xml version="1.0" standalone="no"?><!DOCTYPE svg PUBLIC "-//W3C//DTD SVG 1.1//EN" "http://www.w3.org/Graphics/SVG/1.1/DTD/svg11.dtd"><svg t="1647481695385" class="icon" viewBox="0 0 1024 1024" version="1.1" xmlns="http://www.w3.org/2000/svg" p-id="2490" width="28" height="28" xmlns:xlink="http://www.w3.org/1999/xlink"><defs><style type="text/css"></style></defs><path d="M799 702.4H679.1v124.2c0 10.2-8.3 18.5-18.5 18.5h-25.4c-10.2 0-18.5-8.3-18.5-18.5V702.4H496.9c-4.9 0-9.6-2-13.1-5.4-3.5-3.5-5.4-8.2-5.4-13.1v-25.4c0-10.2 8.3-18.5 18.5-18.5h119.9V515.8c0-10.2 8.3-18.5 18.5-18.5h25.4c10.2 0 18.5 8.3 18.5 18.5V640H799c4.9 0 9.6 1.9 13.1 5.4 3.5 3.5 5.4 8.2 5.4 13.1v25.4c0 4.9-2 9.6-5.4 13.1-3.5 3.5-8.2 5.4-13.1 5.4zM308.6 179.6h369.7c81.7 0 147.9 66.2 147.9 147.9v201c0 18-17.6 20.8-17.6 20.8h-14.9c-15.6 0-16.9-21.1-16.9-21.1v-63H247.2v231.9s25.8 94.2 98.5 94.2h165.9s18.8 1.3 18.8 16.8V826c0 17.5-18.1 19-18.1 19H345.7c-81.7 0-147.9-66.2-147.9-147.9V178.9m49.1 48v190.6h532.7v-91c0-87.9-87.3-99.6-87.3-99.6H331.4" fill="#ffffff" p-id="2491"></path></svg>