<?xml version="1.0" standalone="no"?><!DOCTYPE svg PUBLIC "-//W3C//DTD SVG 1.1//EN" "http://www.w3.org/Graphics/SVG/1.1/DTD/svg11.dtd"><svg t="1647424816073" class="icon" viewBox="0 0 1024 1024" version="1.1" xmlns="http://www.w3.org/2000/svg" p-id="3373" width="35" height="35" xmlns:xlink="http://www.w3.org/1999/xlink"><defs><style type="text/css"></style></defs><path d="M729.43616 104.18176h-437.5552c-93.53216 0-170.35264 76.82048-170.35264 173.69088v437.5552c0 93.51168 76.8256 166.9888 170.35264 166.9888h437.5552c93.51168 0 170.35264-76.82048 170.35264-170.34752V277.87264c0-96.8704-76.82048-173.69088-170.35264-173.69088z m120.23808 607.90784a119.7312 119.7312 0 0 1-120.23808 120.23808h-437.5552a119.7312 119.7312 0 0 1-120.23808-120.23808V277.87264a119.7312 119.7312 0 0 1 120.23808-120.23808h437.5552a119.74144 119.74144 0 0 1 120.23808 120.23808v434.21696z" fill="#d81e06" p-id="3374"></path><path d="M767.5904 401.73568h-244.0704a25.00096 25.00096 0 1 1 0-50.00192h244.0704a25.00096 25.00096 0 1 1 0 50.00192zM767.5904 685.17376h-244.0704a25.00096 25.00096 0 1 1 0-50.00192h244.0704a25.00096 25.00096 0 1 1 0 50.00192zM315.89376 430.60736a25.00096 25.00096 0 0 1-17.67936-7.3216l-43.40224-43.40224a25.0112 25.0112 0 0 1 0-35.35872 25.0112 25.0112 0 0 1 35.35872 0l25.71776 25.71776L403.97312 282.1632a25.0112 25.0112 0 0 1 35.35872 0 25.0112 25.0112 0 0 1 0 35.35872L333.56288 423.28576a25.0368 25.0368 0 0 1-17.66912 7.3216zM314.61376 713.48736a25.00096 25.00096 0 0 1-17.67936-7.3216l-43.40224-43.40224a25.0112 25.0112 0 0 1 0-35.35872 25.0112 25.0112 0 0 1 35.35872 0l25.71776 25.71776L402.688 565.0432a25.0112 25.0112 0 0 1 35.35872 0 25.0112 25.0112 0 0 1 0 35.35872l-105.76896 105.75872a25.00096 25.00096 0 0 1-17.664 7.32672z" fill="#d81e06" p-id="3375"></path></svg>