<?xml version="1.0" standalone="no"?><!DOCTYPE svg PUBLIC "-//W3C//DTD SVG 1.1//EN" "http://www.w3.org/Graphics/SVG/1.1/DTD/svg11.dtd"><svg t="1647420216862" class="icon" viewBox="0 0 1024 1024" version="1.1" xmlns="http://www.w3.org/2000/svg" p-id="3667" width="20" height="20" xmlns:xlink="http://www.w3.org/1999/xlink"><defs><style type="text/css"></style></defs><path d="M888.96 0A135.04 135.04 0 0 1 1024 135.04v753.92A135.04 135.04 0 0 1 888.96 1024H135.04A135.04 135.04 0 0 1 0 888.96V135.04A135.04 135.04 0 0 1 135.04 0z m0 53.76H135.04A80.64 80.64 0 0 0 53.76 135.04v753.92a80.64 80.64 0 0 0 80.64 80.64h754.56a80.64 80.64 0 0 0 80.64-80.64V135.04A80.64 80.64 0 0 0 888.96 53.76z" p-id="3668" fill="#8a8a8a"></path></svg>