<?xml version="1.0" standalone="no"?><!DOCTYPE svg PUBLIC "-//W3C//DTD SVG 1.1//EN" "http://www.w3.org/Graphics/SVG/1.1/DTD/svg11.dtd"><svg t="1646447240168" class="icon" viewBox="0 0 1024 1024" version="1.1" xmlns="http://www.w3.org/2000/svg" p-id="2894" width="10" height="10" xmlns:xlink="http://www.w3.org/1999/xlink"><defs><style type="text/css"></style></defs><path d="M950.595176 860.45418l-42.041512 41.905412c-17.171078 17.132192-38.510082 30.80561-63.568804 40.721447-27.544333 10.965749-58.489112 16.220427-91.556229 16.220427-126.97081 0.058328-327.609433-118.322849-460.567607-250.898307C125.240399 541.256324 24.808012 311.264163 77.885881 178.231287c7.756661-19.479657 18.524912-36.791951 31.339776-52.000328l-0.034792-0.068562 2.724041-4.397147c1.212618-1.987261 2.62785-3.784186 4.224208-5.377474l44.115754-43.953048c11.180644-11.241019 29.348422-11.241019 40.525995 0l19.863397 19.793812 173.040055 172.582637c11.178597 11.106965 11.178597 29.200042-0.034792 40.370453l-46.264697 46.196135-31.461549 31.379685c0 0-16.463973 105.217367 100.734262 222.068701 117.194142 116.799146 222.2355 100.882642 222.2355 100.882642l78.205153-78.004585c11.178597-11.17041 29.370935-11.17041 40.516786 0L950.560384 820.019259C961.759447 831.199902 961.759447 849.281723 950.595176 860.45418L950.595176 860.45418zM950.595176 860.45418" p-id="2895"></path></svg>